<?xml version="1.0" encoding="iso-8859-1"?>
<!-- Uploaded to: SVG Repo, www.svgrepo.com, Generator: SVG Repo Mixer Tools -->
<!DOCTYPE svg PUBLIC "-//W3C//DTD SVG 1.1//EN" "http://www.w3.org/Graphics/SVG/1.1/DTD/svg11.dtd">
<svg fill="#000000" height="800px" width="800px" version="1.1" id="Capa_1" xmlns="http://www.w3.org/2000/svg" xmlns:xlink="http://www.w3.org/1999/xlink" 
	 viewBox="0 0 256.91 256.91" xml:space="preserve">
<g>
	<path d="M256.798,69.305c0.097-0.329,0.074-0.693-0.16-1.053c-7.988-12.25-18.398-23.239-28.299-33.952
		c-9.791-10.595-19.809-22.358-31.829-30.46c-0.451-0.304-0.846-0.154-1.109,0.142c-0.406-0.642-1.177-0.988-2.021-0.414
		c-28.972,19.716-56.748,42.551-81.351,67.521c-0.53-0.118-1.128,0.253-1.012,0.986c0.007,0.043,0.017,0.089,0.024,0.132
		c-0.312,0.63-0.13,1.297,0.317,1.738c2.34,14.181,6.062,29.318,10.931,43.094c-19.36,17.704-38.782,35.714-56.493,55.125
		c-1.145-0.565-2.324-1.078-3.572-1.494c-1.124-0.375-1.751,0.688-1.533,1.59c-0.022,0.017-0.041,0.036-0.063,0.053
		c-0.667,0.046-1.325,0.302-1.796,0.761c-0.151,0.148-0.303,0.295-0.455,0.443c-0.387,0.377-0.567,0.814-0.665,1.265
		c-1.635,1.337-3.218,2.729-4.829,4.091c-0.865,0.665-1.683,1.408-2.507,2.124c-7.983,6.852-15.819,13.864-23.622,20.966
		c-8.336,7.587-19.427,15.083-24.541,25.452c-4.381,8.884-2.283,20.288,6.534,23.208c10.42,8.603,21.792-3.198,29.82-10.822
		c14.635-13.9,34.529-30.001,42.306-49.123c0.308-0.759,0.049-1.426-0.444-1.898c0.01-0.103,0.081-0.163,0.074-0.277
		c-0.107-1.776-0.962-3.579-2.104-5.277c20.23-16.033,38.186-35.959,54.879-55.367c14.687,4.491,29.452,8.701,44.086,13.422
		c1.067,0.344,1.794-0.205,2.088-0.974c0.379,0.498,1.029,0.756,1.674,0.304c27.444-19.264,52.532-44.957,75.286-69.489
		C256.953,70.538,257.004,69.874,256.798,69.305z M76.807,181.103c-1.088-1.294-2.256-2.472-3.271-3.449
		c-1.712-1.647-3.533-3.065-5.49-4.263c18.733-17.349,36.809-35.439,55.495-52.846c0.356,0.946,0.661,1.955,1.029,2.884
		c0.032,0.081,0.103,0.093,0.143,0.163c-0.337,0.707-0.188,1.602,0.841,1.928c1.247,0.395,2.506,0.749,3.756,1.137
		C112.502,145.549,94.197,162.841,76.807,181.103z M179.478,138.476c-0.054,0.056-0.034,0.132-0.076,0.192
		c-0.197-0.412-0.532-0.773-1.048-0.983c-16.222-6.593-33.98-12.205-51.329-14.855c-0.003-0.032,0.021-0.049,0.016-0.083
		c-0.25-1.592-0.63-3.235-0.929-4.848c0.205-0.528,0.048-1.07-0.286-1.495c-2.746-14.215-7.154-29.017-12.276-42.373
		c0.014-0.012,0.03-0.014,0.044-0.026c26.436-23.633,53.212-46.132,81.421-67.643c0.266-0.203,0.421-0.453,0.531-0.715
		c8.945,11.224,20.394,20.735,30.147,31.3c9.567,10.362,18.115,21.69,27.724,31.978C228.967,92.041,202.69,114.182,179.478,138.476z
		"/>
	<path d="M232.831,63.363c0.051-0.436-0.024-0.889-0.307-1.253c-5.903-7.588-13.855-13.975-20.797-20.634
		c-3.105-2.979-6.19-5.986-9.289-8.976c0.063-0.823-0.646-1.499-1.492-1.433c-3.33-3.199-6.691-6.364-10.125-9.444
		c0.407-0.371,0.816-0.742,1.222-1.114c1.129-1.032-0.527-2.646-1.666-1.666c-4.432,3.811-8.824,7.723-13.234,11.598
		c-0.87-0.654-1.9,0.303-1.343,1.177c-10.336,9.105-20.605,18.327-30.584,27.846c-0.457-0.403-0.918-0.802-1.375-1.205
		c-0.645-0.569-1.585,0.35-0.952,0.952c0.436,0.415,0.869,0.834,1.304,1.249c-3.952,3.784-7.89,7.583-11.747,11.445
		c-0.89-0.768-1.796-1.537-2.678-2.305c-0.76-0.661-1.852,0.398-1.117,1.117c0.835,0.816,1.673,1.655,2.509,2.479
		c-2.36,2.377-4.78,4.709-7.094,7.12c-0.549,0.572,0.271,1.366,0.86,0.86c2.549-2.186,5.057-4.431,7.587-6.643
		c3.222,3.19,6.45,6.411,9.698,9.663c-4.617,4.3-9.232,8.601-13.842,12.885c-0.787,0.732,0.352,1.788,1.154,1.153
		c4.937-3.907,9.849-7.938,14.752-11.98c3.21,3.21,6.443,6.414,9.704,9.598c-3.736,3.616-7.48,7.227-11.182,10.862
		c-2.174-2.101-4.322-4.231-6.353-6.493c-0.632-0.704-1.609,0.316-1.025,1.025c1.89,2.296,3.883,4.607,5.935,6.88
		c-1.708,1.68-3.44,3.347-5.141,5.03c-0.708,0.701,0.342,1.712,1.08,1.08c1.801-1.54,3.59-3.113,5.389-4.66
		c3.463,3.706,7.165,7.198,11.283,9.943c0.69,0.46,1.408-0.548,0.863-1.118c-3.385-3.543-6.979-6.857-10.521-10.231
		c3.937-3.393,7.854-6.829,11.775-10.257c3.308,3.2,6.665,6.333,10.052,9.417c-2.499,2.526-5.028,5.061-7.495,7.568
		c-0.747,0.759,0.363,1.826,1.154,1.153c2.717-2.313,5.468-4.687,8.206-7.031c2.733,2.453,5.494,4.857,8.294,7.184
		c-1.344,1.342-2.734,2.639-4.072,3.985c-0.86,0.865,0.458,2.179,1.337,1.337c1.414-1.357,2.866-2.671,4.285-4.023
		c2.363,1.932,4.749,3.818,7.169,5.631c1.086,0.814,2.188-0.875,1.381-1.789c-1.899-2.15-3.871-4.26-5.876-6.352
		c3.652-3.467,7.362-6.868,11.036-10.309c1.093,0.345,2.228-0.741,1.907-1.782c4.243-3.964,8.579-7.829,12.843-11.769
		c1.129,0.739,2.437,1.193,4.151,1.127c1.969-0.076,1.89-2.8,0-3.003c-0.519-0.056-1.044-0.233-1.569-0.489
		c4.422-4.075,8.874-8.119,13.301-12.189c1.217,0.448,2.313-0.557,1.912-1.753c3.267-2.996,6.501-6.025,9.804-8.984
		C235.002,64.854,234.002,63.404,232.831,63.363z M183.064,68.49c-4.464,4.139-8.941,8.264-13.367,12.448
		c-3.114-2.751-6.238-5.49-9.365-8.225c4.58-3.97,9.097-8.013,13.577-12.092C176.966,63.237,180.014,65.864,183.064,68.49z
		 M175.778,58.902c4.671-4.282,9.274-8.622,13.801-13.014c2.951,2.854,5.918,5.688,8.849,8.534
		c-4.437,3.998-8.848,8.034-13.242,12.092C182.067,63.956,178.915,61.437,175.778,58.902z M185.985,71.007
		c3.032,2.66,5.994,5.397,8.891,8.201c-4.415,4.13-8.8,8.305-13.121,12.539c-3.095-2.82-6.222-5.608-9.354-8.391
		C176.962,79.272,181.467,75.133,185.985,71.007z M188.182,69.012c4.324-3.964,8.627-7.946,12.896-11.956
		c2.898,2.884,5.783,5.812,8.715,8.698c-4.234,3.683-8.433,7.441-12.584,11.284C194.279,74.274,191.264,71.603,188.182,69.012z
		 M201.006,52.14c-0.05-0.047-0.103-0.093-0.153-0.14c-2.978-2.801-5.945-5.639-8.931-8.458c2.901-2.847,5.769-5.715,8.597-8.605
		c3.108,3.13,6.23,6.244,9.33,9.375C206.886,46.899,203.941,49.512,201.006,52.14z M189.155,23.139
		c3.037,3.292,6.165,6.502,9.312,9.694c-3.063,2.73-6.098,5.503-9.152,8.247c-3.286-3.061-6.645-6.036-10.087-8.898
		C182.538,29.168,185.849,26.154,189.155,23.139z M177.605,33.662c2.99,3.288,6.091,6.488,9.275,9.614
		c-4.79,4.321-9.614,8.588-14.375,12.954c-1.064-0.872-2.13-1.742-3.191-2.619c-0.794-0.656-5.288-3.751-7.507-5.556
		C167.08,43.258,172.337,38.46,177.605,33.662z M160.888,48.892c1.877,2.969,5.814,5.484,8.077,7.481
		c0.576,0.509,1.17,0.999,1.749,1.503c-4.444,4.083-8.896,8.157-13.324,12.26c-3.374-2.948-6.739-5.901-10.102-8.854
		C151.851,57.181,156.349,53.02,160.888,48.892z M133.993,73.236c4.087-3.586,8.091-7.281,12.142-10.917
		c3.23,3.086,6.458,6.175,9.683,9.273c-3.793,3.518-7.607,7.018-11.391,10.54C140.915,79.153,137.437,76.193,133.993,73.236z
		 M146.831,84.179c3.938-3.27,7.839-6.609,11.729-9.961c3.018,2.896,6.038,5.788,9.071,8.669c-3.535,3.353-7.124,6.651-10.63,10.029
		C153.625,89.975,150.229,87.066,146.831,84.179z M159.409,95.014c3.635-3.193,7.197-6.474,10.809-9.698
		c3.078,2.909,6.161,5.812,9.275,8.679c-3.395,3.348-6.781,6.705-10.122,10.066C166.102,101.006,162.786,97.984,159.409,95.014z
		 M179.058,113.496c-2.464-2.525-4.998-5.007-7.579-7.46c3.628-3.12,7.256-6.284,10.874-9.461c2.43,2.215,4.86,4.429,7.322,6.606
		C186.145,106.629,182.558,110.019,179.058,113.496z M191.814,101.104c-2.34-2.222-4.715-4.409-7.09-6.596
		c4.497-3.972,8.939-8.011,13.34-12.083c0.842,0.865,1.732,1.682,2.549,2.572c1.342,1.464,2.421,2.984,3.573,4.264
		C200.054,93.201,195.906,97.123,191.814,101.104z M206.494,87.052c-2.199-1.978-4.315-4.839-6.049-6.841
		c4.14-3.871,8.197-7.799,12.182-11.766c2.286,2.177,4.628,4.273,7.04,6.271C215.246,78.795,210.858,82.91,206.494,87.052z
		 M222.2,72.422c-2.145-2.372-4.394-4.667-6.724-6.9c2.197-2.23,4.422-4.444,6.544-6.712c1.162-1.242-0.557-2.862-1.831-1.831
		c-2.44,1.975-4.834,4.058-7.241,6.111c-3.081-2.867-6.205-5.682-9.285-8.508c2.809-2.657,5.605-5.325,8.377-8.011
		c5.958,6.173,11.773,12.856,18.585,17.998c0.055,0.041,0.106,0.047,0.16,0.079C227.903,67.216,225.048,69.815,222.2,72.422z"/>
</g>
</svg>